<?xml version="1.0" standalone="no"?><!DOCTYPE svg PUBLIC "-//W3C//DTD SVG 1.1//EN" "http://www.w3.org/Graphics/SVG/1.1/DTD/svg11.dtd"><svg t="1495181189092" class="icon" style="" viewBox="0 0 1024 1024" version="1.1" xmlns="http://www.w3.org/2000/svg" p-id="4385" xmlns:xlink="http://www.w3.org/1999/xlink" width="200" height="200"><defs><style type="text/css"></style></defs><path d="M470.2 473.9h101.5v96.9H470.2z" p-id="4386" fill="#1296db"></path><path d="M777.1 99.6H263.7c-91.5 0-165.6 74.1-165.6 165.6v513.3c0 91.5 74.1 165.6 165.6 165.6H777c91.5 0 165.6-74.1 165.6-165.6V265.2c0.1-91.5-74.1-165.6-165.5-165.6zM775 402.4l10.1 19.2H445.3v-26.2H741C646.2 241 480.7 267.1 447.4 274.2l-5.4-25.6c37.8-8 231.9-38.5 333 153.8z m-34.3 44.5v150.6h-26.2V446.9h26.2zM691 600.1h-26.1V446.9H691v153.2z m-95.4 141.1H445.1V715h150.5v26.2z m-153.1-49.7v-26.1h153.1v26.1H442.5z m155.3-243.7V597H444V447.8h153.8z m0.7-95.6v26.2H445.3v-26.2h153.2z m-153.2-23.5v-26.2h150.6v26.2H445.3zM400 265.1l19.2-10.1v339.8H393V299.2C238.6 394 264.7 559.5 271.7 592.8l-25.6 5.4c-8-37.9-38.5-232 153.9-333.1z m-24.1 176.5v153.2h-26.2V441.6h26.2z m-49.7 2.7v150.6H300V444.3h26.2z m205.2 357.5c-76.4 0-194-24.8-265.4-160.5L255.9 622h339.7v26.2H300.1c94.7 154.4 260.3 128.3 293.5 121.2l5.5 25.6c-11.2 2.5-35.9 6.8-67.7 6.8z m109.4-25.2l-19.2 10.1V446.9h26.2v295.6C802.2 647.8 776.1 482.3 769 449l25.5-5.4c8.2 37.8 38.7 231.9-153.7 333z" p-id="4387" fill="#1296db"></path></svg>