<?xml version="1.0" standalone="no"?><!DOCTYPE svg PUBLIC "-//W3C//DTD SVG 1.1//EN" "http://www.w3.org/Graphics/SVG/1.1/DTD/svg11.dtd"><svg t="1495181137939" class="icon" style="" viewBox="0 0 1024 1024" version="1.1" xmlns="http://www.w3.org/2000/svg" p-id="2985" xmlns:xlink="http://www.w3.org/1999/xlink" width="200" height="200"><defs><style type="text/css"></style></defs><path d="M481.765517 1019.587049 476.199234 1019.587049C388.045977 1019.587049 299.917241 1019.782093 211.739464 1019.489525 165.909579 1019.343235 130.550193 999.27771 106.71571 959.122284 97.299618 943.274667 92.54253 925.744759 91.218392 907.264 90.973181 903.704383 90.948661 900.169142 90.948661 896.609525 90.924139 790.308568 90.875098 683.983235 90.948661 577.682284 90.973182 535.673903 107.475863 501.906284 140.775481 477.086474 161.839084 461.385141 185.894256 454.802284 211.788509 454.826664 239.9387 454.826664 268.113413 454.899807 296.263605 454.70476 300.285061 454.680379 301.829888 456.045713 303.031421 459.82476 361.98008 644.608 421.075865 829.342475 480.171651 1014.101333 480.711111 1015.710475 481.12797 1017.319617 481.765517 1019.587049L481.765517 1019.587049 481.765517 1019.587049ZM512.073563 4.315429C632.251341 4.315429 729.943296 104.033524 729.869733 226.596572 729.79617 348.720761 632.055173 448.487619 512.24521 448.682667 392.48429 448.877714 294.105746 348.672 294.056704 226.499049 294.056706 104.131047 391.993869 4.291047 512.073563 4.315429L512.073563 4.315429 512.073563 4.315429ZM511.877395 908.263617C506.114942 890.270475 500.548659 873.008759 495.006896 855.747049 465.851341 764.537902 436.744827 673.304383 407.417625 582.095235 405.848276 577.145902 406.38774 574.366475 410.458238 570.904383 443.267434 543.183237 475.831418 515.193904 508.370882 487.131427 511.141763 484.717713 512.711112 484.64457 515.555556 487.082666 548.659004 515.60838 581.860537 543.987809 615.111112 572.294093 617.734866 574.537142 618.323372 576.341333 617.219924 579.803426 582.571648 687.811044 548.070498 795.818667 513.544827 903.850667 513.12797 905.069716 512.637548 906.264383 511.877395 908.263617L511.877395 908.263617 511.877395 908.263617ZM932.977778 737.28C932.977778 684.129525 932.87969 630.979049 933.051341 577.804191 933.100385 557.299809 929.348659 537.697523 919.638312 519.728761 898.623755 480.743619 866.378542 458.459428 822.657468 455.558095 790.706512 453.41257 758.657468 455.216761 726.657468 454.729141 722.979311 454.655998 722.047511 456.508951 721.164749 459.337141 715.451341 477.379046 709.639845 495.39657 703.901918 513.462856 650.593104 680.374858 597.308812 847.311235 543.950957 1014.198858 542.87203 1017.612191 541.621456 1019.708951 547.065134 1019.684568 635.954023 1019.513902 724.842911 1019.611426 813.7318 1019.538284 835.138697 1019.513902 855.515711 1014.735235 873.906512 1003.349333 912.772415 979.236568 932.683526 943.786667 932.928734 897.316568 933.198467 843.995426 932.977778 790.649902 932.977778 737.28L932.977778 737.28 932.977778 737.28ZM850.611496 831.171049C847.497318 832.487617 844.236015 832.658284 840.901148 832.658284 812.211496 832.609525 783.521838 832.633902 754.856704 832.633902 735.485059 832.633902 716.113414 832.731426 696.741763 832.585142 684.285059 832.512 676.389274 822.808383 679.209193 811.422475 680.925673 804.522667 686.614556 799.500191 693.750192 799.110093 699.390037 798.793142 705.078926 798.915049 710.718771 798.915049L769.937163 798.915049 769.937163 798.939426C794.605363 798.939426 819.273563 798.841902 843.941763 798.988191 852.475096 799.036951 859.095785 804.742093 860.395401 812.495235 861.74406 820.394667 857.698082 828.172191 850.611496 831.171049L850.611496 831.171049 850.611496 831.171049Z" p-id="2986" fill="#1296db"></path></svg>